<svg width="60" height="60" viewBox="0 0 60 60" fill="none" xmlns="http://www.w3.org/2000/svg">
<path d="M60 29.5061C60 25.5635 55.0224 21.8272 47.391 19.5102C49.1521 11.7949 48.3693 5.65667 44.9205 3.69146C44.1256 3.23049 43.1961 3.01213 42.181 3.01213V5.71733C42.7436 5.71733 43.1961 5.8265 43.5752 6.03273C45.2385 6.97894 45.9601 10.5818 45.3975 15.2158C45.2629 16.3561 45.0428 17.5571 44.7737 18.7823C42.3767 18.2 39.7595 17.7512 37.0077 17.4601C35.3567 15.2158 33.6445 13.1778 31.9201 11.3946C35.9071 7.71893 39.6494 5.7052 42.1932 5.7052V3C38.83 3 34.4272 5.37766 29.9755 9.50217C25.5238 5.40192 21.1211 3.04852 17.7578 3.04852V5.75372C20.2894 5.75372 24.044 7.75532 28.031 11.4067C26.3188 13.19 24.6066 15.2158 22.98 17.4601C20.2161 17.7512 17.5989 18.2 15.2018 18.7945C14.9205 17.5814 14.7126 16.4047 14.5658 15.2765C13.991 10.6425 14.7004 7.0396 16.3514 6.08125C16.7183 5.8629 17.1953 5.76585 17.7578 5.76585V3.06065C16.7305 3.06065 15.8011 3.27901 14.9939 3.73999C11.5573 5.7052 10.7868 11.8313 12.5601 19.5223C4.95312 21.8515 0 25.5756 0 29.5061C0 33.4486 4.97758 37.1849 12.609 39.5019C10.8479 47.2172 11.6307 53.3555 15.0795 55.3207C15.8744 55.7816 16.8039 56 17.8312 56C21.1945 56 25.5972 53.6223 30.0489 49.4978C34.5006 53.5981 38.9034 55.9515 42.2666 55.9515C43.2939 55.9515 44.2234 55.7331 45.0306 55.2721C48.4672 53.3069 49.2377 47.1808 47.4643 39.4898C55.0469 37.1728 60 33.4365 60 29.5061ZM44.0766 21.4147C43.6241 22.9796 43.0616 24.593 42.4256 26.2065C41.9242 25.236 41.3983 24.2655 40.8235 23.295C40.2609 22.3246 39.6616 21.3783 39.0624 20.4564C40.799 20.7111 42.4745 21.0266 44.0766 21.4147ZM38.4753 34.3342C37.5214 35.9718 36.543 37.5246 35.5279 38.9682C33.7057 39.1259 31.859 39.2108 30 39.2108C28.1533 39.2108 26.3066 39.1259 24.4965 38.9803C23.4815 37.5367 22.4908 35.9961 21.5369 34.3706C20.6074 32.7814 19.7636 31.168 18.9931 29.5425C19.7513 27.9169 20.6074 26.2914 21.5247 24.7022C22.4786 23.0645 23.457 21.5118 24.4721 20.0682C26.2943 19.9105 28.1411 19.8256 30 19.8256C31.8467 19.8256 33.6934 19.9105 35.5035 20.0561C36.5185 21.4997 37.5092 23.0403 38.4631 24.6658C39.3926 26.255 40.2364 27.8684 41.0069 29.4939C40.2364 31.1195 39.3926 32.745 38.4753 34.3342ZM42.4256 32.7572C43.086 34.3827 43.6486 36.0082 44.1133 37.5853C42.5112 37.9734 40.8235 38.301 39.0746 38.5557C39.6739 37.6217 40.2731 36.6633 40.8357 35.6807C41.3983 34.7102 41.9242 33.7276 42.4256 32.7572ZM30.0245 45.7008C28.8871 44.5363 27.7497 43.2383 26.6245 41.819C27.7252 41.8675 28.8504 41.9039 29.9878 41.9039C31.1374 41.9039 32.2748 41.8796 33.3877 41.819C32.287 43.2383 31.1496 44.5363 30.0245 45.7008ZM20.9254 38.5557C19.1887 38.301 17.5132 37.9856 15.9111 37.5974C16.3636 36.0325 16.9262 34.4191 17.5622 32.8057C18.0636 33.7762 18.5895 34.7466 19.1643 35.7171C19.7391 36.6876 20.3261 37.6338 20.9254 38.5557ZM29.9633 13.3113C31.1007 14.4759 32.2381 15.7739 33.3632 17.1932C32.2625 17.1447 31.1374 17.1083 30 17.1083C28.8504 17.1083 27.713 17.1325 26.6001 17.1932C27.7008 15.7739 28.8382 14.4759 29.9633 13.3113ZM20.9132 20.4564C20.3139 21.3905 19.7146 22.3488 19.1521 23.3314C18.5895 24.3019 18.0636 25.2724 17.5622 26.2428C16.9018 24.6173 16.3392 22.9918 15.8744 21.4147C17.4766 21.0387 19.1643 20.7111 20.9132 20.4564ZM9.84509 35.6443C5.5157 33.8125 2.71504 31.4106 2.71504 29.5061C2.71504 27.6015 5.5157 25.1875 9.84509 23.3678C10.8969 22.919 12.0465 22.5187 13.2328 22.1426C13.9299 24.5203 14.8471 26.995 15.9845 29.5303C14.8594 32.0536 13.9543 34.5161 13.2695 36.8817C12.0587 36.5056 10.9091 36.0932 9.84509 35.6443ZM16.4248 52.9794C14.7615 52.0332 14.04 48.4303 14.6025 43.7963C14.7371 42.656 14.9572 41.455 15.2263 40.2298C17.6233 40.8121 20.2405 41.2609 22.9923 41.5521C24.6433 43.7963 26.3555 45.8343 28.0799 47.6175C24.0929 51.2932 20.3506 53.3069 17.8068 53.3069C17.2564 53.2948 16.7917 53.1856 16.4248 52.9794ZM45.4342 43.7356C46.009 48.3696 45.2996 51.9725 43.6486 52.9309C43.2817 53.1492 42.8047 53.2463 42.2422 53.2463C39.7106 53.2463 35.956 51.2447 31.969 47.5933C33.6812 45.81 35.3934 43.7842 37.02 41.5399C39.7839 41.2488 42.4011 40.8 44.7982 40.2055C45.0795 41.4308 45.2996 42.6075 45.4342 43.7356ZM50.1427 35.6443C49.0909 36.0932 47.9413 36.4935 46.755 36.8695C46.0579 34.4919 45.1406 32.0172 44.0033 29.4818C45.1284 26.9586 46.0334 24.496 46.7183 22.1305C47.9291 22.5065 49.0787 22.919 50.1549 23.3678C54.4843 25.1996 57.285 27.6015 57.285 29.5061C57.2727 31.4106 54.4721 33.8247 50.1427 35.6443Z" fill="#61DAFB"/>
</svg>
