<svg width="60" height="53" viewBox="0 0 60 53" fill="none" xmlns="http://www.w3.org/2000/svg">
<path d="M26.6452 19L33.0457 30.0451L24.9648 29.7572L26.6452 19Z" fill="#F4A93F"/>
<path d="M29.7179 21.1113L34.4626 30.0431L24.7656 29.7552L29.7179 21.1113Z" fill="#F4A83E"/>
<path d="M28.8279 22.6426L32.9782 30.043L24.8672 29.9627L28.8279 22.6426V22.6426Z" fill="#E88634"/>
<path d="M33.1795 21.8906L34.4625 30.0439L24.6641 29.9455L33.1795 21.8906V21.8906Z" fill="#F8CA51"/>
<path d="M29.7174 32.5362L34.569 29.945L24.6641 29.8535L29.7174 32.5362Z" fill="#F8CA51"/>
<path d="M0 26.2637C0.211666 33.1027 13.5606 38.4809 29.9973 38.4809V35.8387C16.767 35.7733 2.88899 31.7591 2.66666 26.2637H0V26.2637Z" fill="#E88634"/>
<path d="M44.8401 1.09638C38.7554 -2.14151 27.3791 6.62152 19.1602 20.7218L21.4702 22.0429C28.1421 10.7255 38.5911 0.827268 43.5064 3.38429L44.8401 1.09638V1.09638Z" fill="#F9CB52"/>
<path d="M0 26.2622C0.211666 19.4231 13.5606 14.0449 29.9973 14.0449V16.6871C16.767 16.7525 2.88899 20.767 2.66666 26.2622H0V26.2622Z" fill="#E88634"/>
<path d="M15.0116 0.509766C9.13827 4.11088 11.1109 18.2518 19.3293 32.3525L21.6393 31.031C15.0809 19.6489 11.6519 5.73577 16.3449 2.79802L15.0116 0.509766Z" fill="#F4A73E"/>
<path d="M15.0117 52.1631C9.13837 48.562 11.1107 34.4207 19.3293 20.3203L21.6393 21.6414C15.081 33.024 11.652 46.9371 16.345 49.8752L15.0117 52.1631V52.1631Z" fill="#F9CB52"/>
<path d="M14.6641 0.672567C20.749 -2.56533 32.1254 6.1974 40.344 20.2981L38.0337 21.6188C31.3617 10.3017 20.9127 0.404118 15.9974 2.96082L14.6641 0.672567Z" fill="#F4A73E"/>
<path d="M59.9973 26.2622C59.7856 19.4231 46.436 14.0449 30 14.0449V16.6871C43.23 16.7525 57.1083 20.767 57.3306 26.2622H59.9973Z" fill="#E88634"/>
<path d="M14.7422 52.1839C14.7779 52.2054 14.8135 52.2265 14.8495 52.2466C20.8972 55.7058 32.3905 46.9153 40.6748 32.702L38.3771 31.3594C31.6525 42.7776 21.0775 52.7588 16.2102 49.9749C16.1609 49.9468 16.1123 49.9174 16.0645 49.8867L14.7422 52.1839Z" fill="#F9CB52"/>
<path d="M45.0115 51.9977C38.9258 55.2337 27.5504 46.4709 19.3328 32.3715L19.2461 32.2229L21.5248 30.8496C28.1861 42.2421 38.7198 52.2668 43.6685 49.7148L45.0115 51.9977Z" fill="#F4A73E"/>
<path d="M59.9974 25.9336C59.9991 25.9884 60 26.0435 60 26.0987C60 33.0163 46.5684 38.481 30 38.481V35.8388C43.3374 35.7734 57.3334 31.6932 57.3334 26.1301C57.3334 26.0645 57.3314 25.999 57.3274 25.9336H59.9974Z" fill="#E88634"/>
<path d="M44.6631 52.1621C50.5324 48.5583 48.559 34.4193 40.3424 20.3213L40.1961 20.0703L37.8555 21.3366L37.8711 21.3637C44.5217 32.7746 48.0447 46.8595 43.3544 49.859L44.6631 52.1621V52.1621Z" fill="#F4A73E"/>
<path d="M44.8229 0.929688C50.6959 4.5308 48.7233 18.6721 40.5053 32.7724L38.1953 31.4513C44.7539 20.0688 48.1823 6.15569 43.4896 3.21761L44.8229 0.929688V0.929688Z" fill="#F9CB52"/>
</svg>
